<svg xmlns="http://www.w3.org/2000/svg" viewBox="0 0 721.5 832.5">
  <path fill="#9d4edd" d="M559.1 512.5c-4.1 0-7.5 3.4-7.5 7.5v24c0 5.9 2.7 11.5 7.3 15.2l114 90.9.1.1c12.8 10.1 31.6 1 31.6-15.3V520c0-4.1-3.4-7.5-7.5-7.5H559.1z"/>
  <path fill="#9d4edd" d="M551.2 457.1c-8.5 0-15.5 7-15.5 15.5v9c0 7.3 5.1 13.4 11.9 15l161.5.1c6.8-1.6 11.9-7.7 11.9-15v-9c-.1-8.5-7-15.5-15.5-15.5H551.2z"/>
  <path fill="#5a189a" d="M7.7 457.1c-4.3 0-7.7 3.5-7.7 7.7v64.6c0 3.7 2.5 7 6.2 7.6 17.6 2.9 31 18.3 31 36.7s-13.4 33.7-31 36.7c-3.6.6-6.2 3.9-6.2 7.6v49.8c0 .3 0 .5.1.7.5 5.3 7.5 65.5 40.1 91 .2.1.4.3.6.4l103.6 70.3c5.2 3.5 12.1-.2 12.1-6.5v-34.9c0-2.5-1.3-4.9-3.4-6.3l-21.3-14.7c-.2-.2-.4-.3-.6-.5-1.9-1.3-10-8.8-10.6-19.6v-39.3s0-14.3 25-15h499.2c7.3 0 10.6-9.2 4.9-13.8L503.9 563.4c-2.4-1.9-5.3-2.9-8.4-2.9H132.3c-4.1 0-7.4-3.3-7.4-7.4v-.1c0-16.5 11.5-27.1 24-30.2 4-1 7.4-4.3 7.4-8.4v-49.6c0-4.3-3.5-7.7-7.7-7.7H7.7z"/>
  <path fill="#ff7900" d="M349.3.1c-5.9 0-19.7 1.3-35.4 11.2L36.2 173.7S1 192.4 0 239.6v138.5a10 10 0 0 0 10 10h140.9a10 10 0 0 0 10-10v-74.6s-.8-20 20.3-30l160.8-93.2s8.5-5.9 15.3-6.6c6.9.7 15.4 6.6 15.4 6.6l160.8 93.2c21.1 10.1 20.3 30 20.3 30v74.6a10 10 0 0 0 10 10h140.9a10 10 0 0 0 10-10V239.6c-1-47.2-36.1-65.9-36.1-65.9L390.8 11.3C369.9-2 352.3.3 352.3.3S351.2.1 349.3.1z"/>
</svg>
