<svg xmlns="http://www.w3.org/2000/svg" xmlns:xlink="http://www.w3.org/1999/xlink" width="1600" zoomAndPan="magnify" viewBox="0 0 1200 263.99999" height="352" preserveAspectRatio="xMidYMid meet" version="1.2"><defs><clipPath id="f7cdc19d5b"><path d="M 169 145 L 228.75 145 L 228.75 158 L 169 158 Z M 169 145 "/></clipPath><clipPath id="dca6401b17"><path d="M 0 0.0585938 L 224 0.0585938 L 224 123 L 0 123 Z M 0 0.0585938 "/></clipPath></defs><g id="f164ce7533"><path style=" stroke:none;fill-rule:nonzero;fill:#9d4edd;fill-opacity:1;" d="M 177.351562 162.605469 C 176.039062 162.605469 174.976562 163.671875 174.976562 164.984375 L 174.976562 172.589844 C 174.976562 174.464844 175.832031 176.25 177.304688 177.414062 L 213.457031 206.246094 L 213.503906 206.292969 C 217.542969 209.5 223.535156 206.625 223.535156 201.441406 L 223.535156 164.984375 C 223.535156 163.671875 222.46875 162.605469 221.15625 162.605469 Z M 177.351562 162.605469 "/><g clip-rule="nonzero" clip-path="url(#f7cdc19d5b)"><path style=" stroke:none;fill-rule:nonzero;fill:#9d4edd;fill-opacity:1;" d="M 174.835938 145.042969 C 172.125 145.042969 169.914062 147.253906 169.914062 149.960938 L 169.914062 152.816406 C 169.914062 155.144531 171.53125 157.070312 173.695312 157.59375 L 224.914062 157.59375 C 227.074219 157.070312 228.691406 155.144531 228.691406 152.816406 L 228.691406 149.960938 C 228.667969 147.253906 226.457031 145.042969 223.746094 145.042969 Z M 174.835938 145.042969 "/></g><path style=" stroke:none;fill-rule:nonzero;fill:#5a189a;fill-opacity:1;" d="M 2.449219 145.042969 C 1.09375 145.042969 0 146.136719 0 147.492188 L 0 167.980469 C 0 169.144531 0.808594 170.1875 1.972656 170.378906 C 7.558594 171.304688 11.8125 176.179688 11.8125 182.023438 C 11.8125 187.871094 7.558594 192.71875 1.972656 193.671875 C 0.832031 193.859375 0 194.90625 0 196.070312 L 0 211.851562 C 0 211.949219 0 212.019531 0.0234375 212.089844 C 0.191406 213.777344 2.402344 232.886719 12.738281 240.945312 C 12.8125 240.992188 12.859375 241.039062 12.929688 241.085938 L 45.777344 263.382812 C 47.417969 264.5 49.625 263.308594 49.625 261.335938 L 49.625 250.261719 C 49.625 249.453125 49.222656 248.691406 48.558594 248.242188 L 41.785156 243.582031 C 41.710938 243.535156 41.664062 243.488281 41.59375 243.441406 C 40.976562 243.035156 38.410156 240.660156 38.21875 237.214844 L 38.21875 224.734375 C 38.21875 224.734375 38.21875 220.195312 46.15625 219.957031 L 204.496094 219.957031 C 206.824219 219.957031 207.847656 217.035156 206.042969 215.585938 L 159.859375 178.769531 C 159.101562 178.175781 158.171875 177.84375 157.199219 177.84375 L 41.949219 177.84375 C 40.640625 177.84375 39.597656 176.796875 39.597656 175.488281 L 39.597656 175.464844 C 39.597656 170.25 43.265625 166.867188 47.226562 165.890625 C 48.496094 165.578125 49.578125 164.539062 49.578125 163.226562 L 49.578125 147.492188 C 49.578125 146.136719 48.484375 145.042969 47.132812 145.042969 Z M 2.449219 145.042969 "/><g clip-rule="nonzero" clip-path="url(#dca6401b17)"><path style=" stroke:none;fill-rule:nonzero;fill:#ff7900;fill-opacity:1;" d="M 110.78125 0.0898438 C 108.90625 0.0898438 104.535156 0.488281 99.5625 3.625 L 11.480469 55.152344 C 11.480469 55.152344 0.332031 61.070312 0 76.046875 L 0 119.992188 C 0 120.308594 0.0585938 120.609375 0.179688 120.902344 C 0.300781 121.191406 0.472656 121.449219 0.695312 121.671875 C 0.917969 121.894531 1.175781 122.066406 1.46875 122.1875 C 1.757812 122.308594 2.0625 122.367188 2.375 122.367188 L 47.058594 122.367188 C 47.375 122.367188 47.679688 122.308594 47.96875 122.1875 C 48.261719 122.066406 48.515625 121.894531 48.742188 121.671875 C 48.964844 121.449219 49.136719 121.191406 49.253906 120.902344 C 49.375 120.609375 49.4375 120.308594 49.4375 119.992188 L 49.4375 96.320312 C 49.4375 96.320312 49.199219 90.042969 55.878906 86.859375 L 106.882812 57.269531 C 106.882812 57.269531 109.566406 55.390625 111.753906 55.175781 C 113.941406 55.390625 116.628906 57.269531 116.628906 57.269531 L 167.632812 86.859375 C 174.3125 90.066406 174.074219 96.320312 174.074219 96.320312 L 174.074219 119.992188 C 174.074219 120.308594 174.132812 120.609375 174.253906 120.902344 C 174.375 121.191406 174.546875 121.449219 174.769531 121.671875 C 174.992188 121.894531 175.25 122.066406 175.539062 122.1875 C 175.832031 122.308594 176.136719 122.367188 176.449219 122.367188 L 221.132812 122.367188 C 221.449219 122.367188 221.75 122.308594 222.042969 122.1875 C 222.335938 122.066406 222.589844 121.894531 222.8125 121.671875 C 223.035156 121.449219 223.207031 121.191406 223.328125 120.902344 C 223.449219 120.609375 223.511719 120.308594 223.511719 119.992188 L 223.511719 76.046875 C 223.175781 61.070312 212.054688 55.152344 212.054688 55.152344 L 123.949219 3.625 C 117.339844 -0.558594 111.753906 0.132812 111.753906 0.132812 C 111.753906 0.132812 111.40625 0.0898438 110.78125 0.0898438 Z M 110.78125 0.0898438 "/></g><g style="fill:#9d4edd;fill-opacity:1;"><g transform="translate(275.916125, 194.115823)"><path style="stroke:none" d="M 41.484375 0 L 1.765625 -123.546875 L 31.59375 -123.546875 L 43.421875 -85.953125 L 56.484375 -45.359375 L 70.59375 -85.953125 L 83.84375 -123.546875 L 110.484375 -123.546875 L 123.71875 -85.953125 L 138.015625 -44.828125 L 151.265625 -85.953125 L 163.09375 -123.546875 L 192.734375 -123.546875 L 152.84375 0 L 125.3125 0 L 97.25 -79.953125 L 69.1875 0 Z M 41.484375 0 "/></g></g><g style="fill:#9d4edd;fill-opacity:1;"><g transform="translate(460.175344, 194.115823)"><path style="stroke:none" d="M 57.1875 2.46875 C 47.300781 2.46875 38.5625 0.410156 30.96875 -3.703125 C 23.382812 -7.828125 17.472656 -13.566406 13.234375 -20.921875 C 9.003906 -28.273438 6.890625 -36.773438 6.890625 -46.421875 C 6.890625 -56.066406 9.035156 -64.535156 13.328125 -71.828125 C 17.617188 -79.128906 23.554688 -84.835938 31.140625 -88.953125 C 38.734375 -93.078125 47.53125 -95.140625 57.53125 -95.140625 C 68.125 -95.140625 77.273438 -92.785156 84.984375 -88.078125 C 92.691406 -83.367188 98.570312 -76.773438 102.625 -68.296875 C 106.6875 -59.828125 108.425781 -49.945312 107.84375 -38.65625 L 33.53125 -38.65625 C 34.820312 -32.300781 37.644531 -27.445312 42 -24.09375 C 46.351562 -20.738281 51.59375 -19.0625 57.71875 -19.0625 C 62.1875 -19.0625 66.273438 -19.914062 69.984375 -21.625 C 73.691406 -23.332031 76.660156 -25.710938 78.890625 -28.765625 L 106.078125 -28.765625 C 102.078125 -19.003906 95.78125 -11.359375 87.1875 -5.828125 C 78.601562 -0.296875 68.601562 2.46875 57.1875 2.46875 Z M 33.71875 -55.59375 L 81.890625 -55.59375 C 80.359375 -61.238281 77.503906 -65.679688 73.328125 -68.921875 C 69.148438 -72.160156 63.945312 -73.78125 57.71875 -73.78125 C 51.832031 -73.78125 46.738281 -72.160156 42.4375 -68.921875 C 38.144531 -65.679688 35.238281 -61.238281 33.71875 -55.59375 Z M 33.71875 -55.59375 "/></g></g><g style="fill:#9d4edd;fill-opacity:1;"><g transform="translate(574.719708, 194.115823)"><path style="stroke:none" d="M 13.40625 0 L 13.40625 -92.65625 L 33.359375 -92.65625 L 36.890625 -80.3125 C 39.953125 -84.664062 43.71875 -87.8125 48.1875 -89.75 C 52.65625 -91.6875 58.300781 -92.65625 65.125 -92.65625 L 75.1875 -92.65625 L 75.1875 -68.3125 L 64.953125 -68.3125 C 57.304688 -68.3125 51.273438 -66.25 46.859375 -62.125 C 42.441406 -58.007812 40.234375 -50.953125 40.234375 -40.953125 L 40.234375 0 Z M 13.40625 0 "/></g></g><g style="fill:#9d4edd;fill-opacity:1;"><g transform="translate(655.90678, 194.115823)"><path style="stroke:none" d="M 13.40625 0 L 13.40625 -130.609375 L 40.234375 -130.609375 L 40.234375 -59.296875 L 47.125 -59.296875 C 52.769531 -59.296875 57.035156 -60.207031 59.921875 -62.03125 C 62.804688 -63.863281 65.128906 -67.367188 66.890625 -72.546875 L 73.421875 -92.65625 L 102.375 -92.65625 L 91.609375 -63.1875 C 88.660156 -54.945312 84.71875 -48.648438 79.78125 -44.296875 L 106.421875 0 L 75.1875 0 L 54.71875 -35.296875 L 40.234375 -35.296875 L 40.234375 0 Z M 13.40625 0 "/></g></g><g style="fill:#ff7900;fill-opacity:1;"><g transform="translate(766.922335, 194.115823)"><path style="stroke:none" d="M 14.828125 0 L 14.828125 -123.546875 L 92.3125 -123.546875 L 92.3125 -98.140625 L 42.890625 -98.140625 L 42.890625 -67.25 L 87.71875 -67.25 L 87.71875 -42.53125 L 42.890625 -42.53125 L 42.890625 0 Z M 14.828125 0 "/></g></g><g style="fill:#ff7900;fill-opacity:1;"><g transform="translate(866.994227, 194.115823)"><path style="stroke:none" d="M 13.40625 0 L 13.40625 -130.609375 L 40.234375 -130.609375 L 40.234375 0 Z M 13.40625 0 "/></g></g><g style="fill:#ff7900;fill-opacity:1;"><g transform="translate(920.6483, 194.115823)"><path style="stroke:none" d="M 58.953125 2.46875 C 48.710938 2.46875 39.679688 0.410156 31.859375 -3.703125 C 24.035156 -7.828125 17.914062 -13.566406 13.5 -20.921875 C 9.09375 -28.273438 6.890625 -36.773438 6.890625 -46.421875 C 6.890625 -56.066406 9.09375 -64.535156 13.5 -71.828125 C 17.914062 -79.128906 24.035156 -84.835938 31.859375 -88.953125 C 39.679688 -93.078125 48.710938 -95.140625 58.953125 -95.140625 C 69.191406 -95.140625 78.222656 -93.078125 86.046875 -88.953125 C 93.867188 -84.835938 99.957031 -79.128906 104.3125 -71.828125 C 108.664062 -64.535156 110.84375 -56.066406 110.84375 -46.421875 C 110.84375 -36.773438 108.664062 -28.273438 104.3125 -20.921875 C 99.957031 -13.566406 93.867188 -7.828125 86.046875 -3.703125 C 78.222656 0.410156 69.191406 2.46875 58.953125 2.46875 Z M 33.359375 -46.421875 C 33.359375 -38.890625 35.738281 -32.710938 40.5 -27.890625 C 45.269531 -23.066406 51.421875 -20.65625 58.953125 -20.65625 C 66.484375 -20.65625 72.597656 -23.066406 77.296875 -27.890625 C 82.003906 -32.710938 84.359375 -38.890625 84.359375 -46.421875 C 84.359375 -54.066406 82.003906 -60.269531 77.296875 -65.03125 C 72.597656 -69.800781 66.484375 -72.1875 58.953125 -72.1875 C 51.421875 -72.1875 45.269531 -69.800781 40.5 -65.03125 C 35.738281 -60.269531 33.359375 -54.066406 33.359375 -46.421875 Z M 33.359375 -46.421875 "/></g></g><g style="fill:#ff7900;fill-opacity:1;"><g transform="translate(1033.957141, 194.115823)"><path style="stroke:none" d="M 35.828125 0 L 1.59375 -92.65625 L 30 -92.65625 L 40.765625 -61.953125 L 49.953125 -36 L 59.484375 -61.953125 L 70.953125 -92.65625 L 92.65625 -92.65625 L 104.140625 -61.953125 L 113.671875 -35.828125 L 122.84375 -61.953125 L 133.78125 -92.65625 L 162.03125 -92.65625 L 127.78125 0 L 102.90625 0 L 81.890625 -56.484375 L 60.71875 0 Z M 35.828125 0 "/></g></g></g></svg>

